<?xml version="1.0" encoding="UTF-8"?><svg xmlns="http://www.w3.org/2000/svg" xmlns:xlink="http://www.w3.org/1999/xlink" stroke-dasharray="none" shape-rendering="auto" font-family="'Dialog'" width="1026" text-rendering="auto" fill-opacity="1" contentScriptType="text/ecmascript" color-interpolation="auto" color-rendering="auto" preserveAspectRatio="xMidYMid meet" font-size="12" viewBox="0 0 1026 1020" fill="black" stroke="black" image-rendering="auto" stroke-miterlimit="10" zoomAndPan="magnify" version="1.0" stroke-linecap="square" stroke-linejoin="miter" contentStyleType="text/css" font-style="normal" height="1020" stroke-width="1" stroke-dashoffset="0" font-weight="normal" stroke-opacity="1">
    <!--Generated by the Batik Graphics2D SVG Generator-->
    <defs id="genericDefs"/>
    <g>
        <defs id="defs1">
            <linearGradient x1="10" x2="10" y1="10" gradientUnits="userSpaceOnUse" y2="767" xlink:type="simple" xlink:actuate="onLoad" id="linearGradient1" xlink:show="other" spreadMethod="pad">
                <stop stop-opacity="1" stop-color="white" offset="0%"/>
                <stop stop-opacity="1" stop-color="white" offset="100%"/>
            </linearGradient>
            <linearGradient x1="30" x2="30" y1="44" gradientUnits="userSpaceOnUse" y2="744" xlink:type="simple" xlink:actuate="onLoad" id="linearGradient2" xlink:show="other" spreadMethod="pad">
                <stop stop-opacity="1" stop-color="white" offset="0%"/>
                <stop stop-opacity="1" stop-color="rgb(195,209,213)" offset="100%"/>
            </linearGradient>
            <linearGradient x1="150" x2="150" y1="44" gradientUnits="userSpaceOnUse" y2="744" xlink:type="simple" xlink:actuate="onLoad" id="linearGradient3" xlink:show="other" spreadMethod="pad">
                <stop stop-opacity="1" stop-color="white" offset="0%"/>
                <stop stop-opacity="1" stop-color="rgb(195,209,213)" offset="100%"/>
            </linearGradient>
            <linearGradient x1="330" x2="330" y1="44" gradientUnits="userSpaceOnUse" y2="743" xlink:type="simple" xlink:actuate="onLoad" id="linearGradient4" xlink:show="other" spreadMethod="pad">
                <stop stop-opacity="1" stop-color="white" offset="0%"/>
                <stop stop-opacity="1" stop-color="rgb(195,209,213)" offset="100%"/>
            </linearGradient>
            <linearGradient x1="370" x2="370" y1="111" gradientUnits="userSpaceOnUse" y2="211" xlink:type="simple" xlink:actuate="onLoad" id="linearGradient5" xlink:show="other" spreadMethod="pad">
                <stop stop-opacity="1" stop-color="white" offset="0%"/>
                <stop stop-opacity="1" stop-color="rgb(195,209,213)" offset="100%"/>
            </linearGradient>
            <linearGradient x1="370" x2="370" y1="330" gradientUnits="userSpaceOnUse" y2="430" xlink:type="simple" xlink:actuate="onLoad" id="linearGradient6" xlink:show="other" spreadMethod="pad">
                <stop stop-opacity="1" stop-color="white" offset="0%"/>
                <stop stop-opacity="1" stop-color="rgb(195,209,213)" offset="100%"/>
            </linearGradient>
            <linearGradient x1="710" x2="710" y1="44" gradientUnits="userSpaceOnUse" y2="744" xlink:type="simple" xlink:actuate="onLoad" id="linearGradient7" xlink:show="other" spreadMethod="pad">
                <stop stop-opacity="1" stop-color="white" offset="0%"/>
                <stop stop-opacity="1" stop-color="rgb(195,209,213)" offset="100%"/>
            </linearGradient>
            <linearGradient x1="870" x2="870" y1="44" gradientUnits="userSpaceOnUse" y2="744" xlink:type="simple" xlink:actuate="onLoad" id="linearGradient8" xlink:show="other" spreadMethod="pad">
                <stop stop-opacity="1" stop-color="white" offset="0%"/>
                <stop stop-opacity="1" stop-color="rgb(195,209,213)" offset="100%"/>
            </linearGradient>
            <linearGradient x1="930" x2="930" y1="350" gradientUnits="userSpaceOnUse" y2="450" xlink:type="simple" xlink:actuate="onLoad" id="linearGradient9" xlink:show="other" spreadMethod="pad">
                <stop stop-opacity="1" stop-color="white" offset="0%"/>
                <stop stop-opacity="1" stop-color="rgb(195,209,213)" offset="100%"/>
            </linearGradient>
            <linearGradient x1="530" x2="530" y1="44" gradientUnits="userSpaceOnUse" y2="744" xlink:type="simple" xlink:actuate="onLoad" id="linearGradient10" xlink:show="other" spreadMethod="pad">
                <stop stop-opacity="1" stop-color="white" offset="0%"/>
                <stop stop-opacity="1" stop-color="rgb(195,209,213)" offset="100%"/>
            </linearGradient>
            <linearGradient x1="570" x2="570" y1="211" gradientUnits="userSpaceOnUse" y2="311" xlink:type="simple" xlink:actuate="onLoad" id="linearGradient11" xlink:show="other" spreadMethod="pad">
                <stop stop-opacity="1" stop-color="white" offset="0%"/>
                <stop stop-opacity="1" stop-color="rgb(195,209,213)" offset="100%"/>
            </linearGradient>
            <clipPath clipPathUnits="userSpaceOnUse" id="clipPath1">
                <path d="M10 10 L10 766 L1015 766 L1015 10 Z"/>
            </clipPath>
            <clipPath clipPathUnits="userSpaceOnUse" id="clipPath2">
                <path d="M7 7 L1019 7 L1019 770 L7 770 L7 7 Z"/>
            </clipPath>
            <clipPath clipPathUnits="userSpaceOnUse" id="clipPath3">
                <path d="M15 12 L93 12 L93 29 L15 29 L15 12 Z"/>
            </clipPath>
            <clipPath clipPathUnits="userSpaceOnUse" id="clipPath4">
                <path d="M29 43 L131 43 L131 745 L29 745 L29 43 Z"/>
            </clipPath>
            <clipPath clipPathUnits="userSpaceOnUse" id="clipPath5">
                <path d="M30 44 L30 743 L129 743 L129 44 Z"/>
            </clipPath>
            <clipPath clipPathUnits="userSpaceOnUse" id="clipPath6">
                <path d="M32 46 L130 46 L130 63 L32 63 L32 46 Z"/>
            </clipPath>
            <clipPath clipPathUnits="userSpaceOnUse" id="clipPath7">
                <path d="M149 43 L251 43 L251 745 L149 745 L149 43 Z"/>
            </clipPath>
            <clipPath clipPathUnits="userSpaceOnUse" id="clipPath8">
                <path d="M150 44 L150 743 L249 743 L249 44 Z"/>
            </clipPath>
            <clipPath clipPathUnits="userSpaceOnUse" id="clipPath9">
                <path d="M150 46 L251 46 L251 63 L150 63 L150 46 Z"/>
            </clipPath>
            <clipPath clipPathUnits="userSpaceOnUse" id="clipPath10">
                <path d="M329 43 L431 43 L431 744 L329 744 L329 43 Z"/>
            </clipPath>
            <clipPath clipPathUnits="userSpaceOnUse" id="clipPath11">
                <path d="M330 44 L330 742 L429 742 L429 44 Z"/>
            </clipPath>
            <clipPath clipPathUnits="userSpaceOnUse" id="clipPath12">
                <path d="M331 46 L431 46 L431 63 L331 63 L331 46 Z"/>
            </clipPath>
            <clipPath clipPathUnits="userSpaceOnUse" id="clipPath13">
                <path d="M370 111 L370 210 L389 210 L389 111 Z"/>
            </clipPath>
            <clipPath clipPathUnits="userSpaceOnUse" id="clipPath14">
                <path d="M369 110 L391 110 L391 212 L369 212 L369 110 Z"/>
            </clipPath>
            <clipPath clipPathUnits="userSpaceOnUse" id="clipPath15">
                <path d="M370 330 L370 429 L389 429 L389 330 Z"/>
            </clipPath>
            <clipPath clipPathUnits="userSpaceOnUse" id="clipPath16">
                <path d="M369 329 L391 329 L391 431 L369 431 L369 329 Z"/>
            </clipPath>
            <clipPath clipPathUnits="userSpaceOnUse" id="clipPath17">
                <path d="M709 43 L811 43 L811 745 L709 745 L709 43 Z"/>
            </clipPath>
            <clipPath clipPathUnits="userSpaceOnUse" id="clipPath18">
                <path d="M710 44 L710 743 L809 743 L809 44 Z"/>
            </clipPath>
            <clipPath clipPathUnits="userSpaceOnUse" id="clipPath19">
                <path d="M719 46 L803 46 L803 63 L719 63 L719 46 Z"/>
            </clipPath>
            <clipPath clipPathUnits="userSpaceOnUse" id="clipPath20">
                <path d="M869 43 L1012 43 L1012 745 L869 745 L869 43 Z"/>
            </clipPath>
            <clipPath clipPathUnits="userSpaceOnUse" id="clipPath21">
                <path d="M870 44 L870 743 L1010 743 L1010 44 Z"/>
            </clipPath>
            <clipPath clipPathUnits="userSpaceOnUse" id="clipPath22">
                <path d="M872 46 L1010 46 L1010 63 L872 63 L872 46 Z"/>
            </clipPath>
            <clipPath clipPathUnits="userSpaceOnUse" id="clipPath23">
                <path d="M930 350 L930 449 L949 449 L949 350 Z"/>
            </clipPath>
            <clipPath clipPathUnits="userSpaceOnUse" id="clipPath24">
                <path d="M929 349 L951 349 L951 451 L929 451 L929 349 Z"/>
            </clipPath>
            <clipPath clipPathUnits="userSpaceOnUse" id="clipPath25">
                <path d="M529 43 L631 43 L631 745 L529 745 L529 43 Z"/>
            </clipPath>
            <clipPath clipPathUnits="userSpaceOnUse" id="clipPath26">
                <path d="M530 44 L530 743 L629 743 L629 44 Z"/>
            </clipPath>
            <clipPath clipPathUnits="userSpaceOnUse" id="clipPath27">
                <path d="M548 46 L614 46 L614 63 L548 63 L548 46 Z"/>
            </clipPath>
            <clipPath clipPathUnits="userSpaceOnUse" id="clipPath28">
                <path d="M570 211 L570 310 L589 310 L589 211 Z"/>
            </clipPath>
            <clipPath clipPathUnits="userSpaceOnUse" id="clipPath29">
                <path d="M569 210 L591 210 L591 312 L569 312 L569 210 Z"/>
            </clipPath>
            <clipPath clipPathUnits="userSpaceOnUse" id="clipPath30">
                <path d="M9 9 L1017 9 L1017 768 L9 768 L9 9 Z"/>
            </clipPath>
            <clipPath clipPathUnits="userSpaceOnUse" id="clipPath31">
                <path d="M-1 -1 L1027 -1 L1027 1021 L-1 1021 L-1 -1 Z"/>
            </clipPath>
            <clipPath clipPathUnits="userSpaceOnUse" id="clipPath32">
                <path d="M421 190 L542 190 L542 207 L421 207 L421 190 Z"/>
            </clipPath>
            <clipPath clipPathUnits="userSpaceOnUse" id="clipPath33">
                <path d="M553 204 L572 204 L572 219 L553 219 L553 204 Z"/>
            </clipPath>
            <clipPath clipPathUnits="userSpaceOnUse" id="clipPath34">
                <path d="M824 356 L864 356 L864 373 L824 373 L824 356 Z"/>
            </clipPath>
            <clipPath clipPathUnits="userSpaceOnUse" id="clipPath35">
                <path d="M759 344 L778 344 L778 359 L759 359 L759 344 Z"/>
            </clipPath>
            <clipPath clipPathUnits="userSpaceOnUse" id="clipPath36">
                <path d="M240 150 L332 150 L332 167 L240 167 L240 150 Z"/>
            </clipPath>
            <clipPath clipPathUnits="userSpaceOnUse" id="clipPath37">
                <path d="M353 164 L372 164 L372 179 L353 179 L353 164 Z"/>
            </clipPath>
            <clipPath clipPathUnits="userSpaceOnUse" id="clipPath38">
                <path d="M186 90 L266 90 L266 107 L186 107 L186 90 Z"/>
            </clipPath>
            <clipPath clipPathUnits="userSpaceOnUse" id="clipPath39">
                <path d="M353 104 L372 104 L372 119 L353 119 L353 104 Z"/>
            </clipPath>
            <clipPath clipPathUnits="userSpaceOnUse" id="clipPath40">
                <path d="M186 309 L266 309 L266 326 L186 326 L186 309 Z"/>
            </clipPath>
            <clipPath clipPathUnits="userSpaceOnUse" id="clipPath41">
                <path d="M353 323 L372 323 L372 338 L353 338 L353 323 Z"/>
            </clipPath>
            <clipPath clipPathUnits="userSpaceOnUse" id="clipPath42">
                <path d="M629 290 L723 290 L723 307 L629 307 L629 290 Z"/>
            </clipPath>
            <clipPath clipPathUnits="userSpaceOnUse" id="clipPath43">
                <path d="M743 304 L762 304 L762 319 L743 319 L743 304 Z"/>
            </clipPath>
        </defs>
        <g fill="url(#linearGradient1)" font-family="'Segoe UI'" stroke-linejoin="round" stroke="url(#linearGradient1)" stroke-width="0" stroke-miterlimit="0">
            <rect x="10" y="10" clip-path="url(#clipPath1)" width="1006" height="757" stroke="none"/>
        </g>
        <g stroke-width="0.1" font-family="'Segoe UI'" stroke-linecap="butt">
            <line clip-path="url(#clipPath2)" fill="none" x1="106" x2="106" y1="10" y2="22"/>
            <line clip-path="url(#clipPath2)" fill="none" x1="106" x2="106" y1="22" y2="22"/>
            <line clip-path="url(#clipPath2)" fill="none" x1="106" x2="100" y1="22" y2="28"/>
            <line clip-path="url(#clipPath2)" fill="none" x1="100" x2="100" y1="28" y2="28"/>
            <line clip-path="url(#clipPath2)" fill="none" x1="100" x2="10" y1="28" y2="28"/>
            <text xml:space="preserve" x="16" y="26" clip-path="url(#clipPath3)" stroke="none">Interaction14  </text>
            <rect x="30" y="44" clip-path="url(#clipPath4)" fill="none" width="99" height="18" stroke-width="1.1"/>
            <line clip-path="url(#clipPath4)" fill="none" x1="80" x2="80" y1="62" y2="743" stroke-dasharray="5,5" stroke-width="1.1"/>
        </g>
        <g stroke-linecap="butt" fill="url(#linearGradient2)" font-family="'Segoe UI'" stroke-dasharray="5,5" stroke="url(#linearGradient2)" stroke-width="1.1">
            <rect x="30" y="44" clip-path="url(#clipPath5)" width="100" opacity="0" height="700" stroke="none"/>
            <text x="33" y="60" clip-path="url(#clipPath6)" fill="black" stroke="none" xml:space="preserve"> : Telltale Reques...</text>
            <rect x="150" y="44" clip-path="url(#clipPath7)" fill="none" width="99" stroke-dasharray="none" height="18" stroke="black"/>
            <line clip-path="url(#clipPath7)" fill="none" x1="200" x2="200" y1="62" y2="743" stroke="black"/>
            <rect x="150" y="44" clip-path="url(#clipPath8)" fill="url(#linearGradient3)" width="100" opacity="0" height="700" stroke="none"/>
            <text x="151" y="60" clip-path="url(#clipPath9)" fill="black" stroke="none" xml:space="preserve"> : Non Safety Inst...</text>
            <rect x="330" y="44" clip-path="url(#clipPath10)" fill="none" width="99" stroke-dasharray="none" height="18" stroke="black"/>
            <line clip-path="url(#clipPath10)" fill="none" x1="380" x2="380" y1="62" y2="742" stroke="black"/>
            <rect x="330" y="44" clip-path="url(#clipPath11)" fill="url(#linearGradient4)" width="100" opacity="0" height="699" stroke="none"/>
            <text x="332" y="60" clip-path="url(#clipPath12)" fill="black" stroke="none" xml:space="preserve"> : Request Handli...</text>
            <rect x="370" y="111" clip-path="url(#clipPath13)" fill="url(#linearGradient5)" width="20" height="100" stroke="none"/>
            <rect x="370" y="111" clip-path="url(#clipPath14)" fill="none" width="19" stroke-dasharray="none" rx="0" ry="0" height="99" stroke="black"/>
            <rect x="370" y="330" clip-path="url(#clipPath15)" fill="url(#linearGradient6)" width="20" stroke-dasharray="none" height="100" stroke="none"/>
            <rect x="370" y="330" clip-path="url(#clipPath16)" fill="none" width="19" stroke-dasharray="none" rx="0" ry="0" height="99" stroke="black"/>
            <rect x="710" y="44" clip-path="url(#clipPath17)" fill="none" width="99" stroke-dasharray="none" height="18" stroke="black"/>
            <line clip-path="url(#clipPath17)" fill="none" x1="760" x2="760" y1="62" y2="743" stroke="black"/>
            <rect x="710" y="44" clip-path="url(#clipPath18)" fill="url(#linearGradient7)" width="100" opacity="0" height="700" stroke="none"/>
            <text x="720" y="60" clip-path="url(#clipPath19)" fill="black" stroke="none" xml:space="preserve"> : Plane Storage</text>
            <rect x="870" y="44" clip-path="url(#clipPath20)" fill="none" width="140" stroke-dasharray="none" height="18" stroke="black"/>
            <line clip-path="url(#clipPath20)" fill="none" x1="940" x2="940" y1="62" y2="743" stroke="black"/>
            <rect x="870" y="44" clip-path="url(#clipPath21)" fill="url(#linearGradient8)" width="141" opacity="0" height="700" stroke="none"/>
            <text x="873" y="60" clip-path="url(#clipPath22)" fill="black" stroke="none" xml:space="preserve"> : Display Controller 60H...</text>
            <rect x="930" y="350" clip-path="url(#clipPath23)" fill="url(#linearGradient9)" width="20" height="100" stroke="none"/>
            <rect x="930" y="350" clip-path="url(#clipPath24)" fill="none" width="19" stroke-dasharray="none" rx="0" ry="0" height="99" stroke="black"/>
            <rect x="530" y="44" clip-path="url(#clipPath25)" fill="none" width="99" stroke-dasharray="none" height="18" stroke="black"/>
            <line clip-path="url(#clipPath25)" fill="none" x1="580" x2="580" y1="62" y2="743" stroke="black"/>
            <rect x="530" y="44" clip-path="url(#clipPath26)" fill="url(#linearGradient10)" width="100" opacity="0" height="700" stroke="none"/>
            <text x="549" y="60" clip-path="url(#clipPath27)" fill="black" stroke="none" xml:space="preserve"> : Rendering</text>
            <rect x="570" y="211" clip-path="url(#clipPath28)" fill="url(#linearGradient11)" width="20" height="100" stroke="none"/>
            <rect x="570" y="211" clip-path="url(#clipPath29)" fill="none" width="19" stroke-dasharray="none" rx="0" ry="0" height="99" stroke="black"/>
            <rect x="10" y="10" clip-path="url(#clipPath30)" fill="none" width="1005" stroke-dasharray="none" rx="0" ry="0" height="756" stroke="black"/>
        </g>
        <g text-rendering="optimizeLegibility" stroke-width="1.1" font-family="'Segoe UI'" stroke-linecap="butt">
            <line clip-path="url(#clipPath31)" fill="none" x1="390" x2="570" y1="211" y2="211"/>
            <text xml:space="preserve" x="422" y="204" clip-path="url(#clipPath32)" stroke="none">Target Rendering State</text>
            <line clip-path="url(#clipPath33)" fill="none" x1="554" x2="570" y1="217" y2="211"/>
            <line clip-path="url(#clipPath33)" fill="none" x1="570" x2="554" y1="211" y2="205"/>
            <line clip-path="url(#clipPath31)" fill="none" x1="930" x2="760" y1="351" y2="351"/>
            <text xml:space="preserve" x="825" y="370" clip-path="url(#clipPath34)" stroke="none">Polling</text>
            <line clip-path="url(#clipPath35)" fill="none" x1="776" x2="760" y1="345" y2="351"/>
            <line clip-path="url(#clipPath35)" fill="none" x1="760" x2="776" y1="351" y2="357"/>
            <line clip-path="url(#clipPath31)" fill="none" x1="200" x2="370" y1="171" y2="171"/>
            <text xml:space="preserve" x="241" y="164" clip-path="url(#clipPath36)" stroke="none">non safety status</text>
            <line clip-path="url(#clipPath37)" fill="none" x1="354" x2="370" y1="177" y2="171"/>
            <line clip-path="url(#clipPath37)" fill="none" x1="370" x2="354" y1="171" y2="165"/>
            <line clip-path="url(#clipPath31)" fill="none" x1="80" x2="370" y1="111" y2="111"/>
            <text xml:space="preserve" x="187" y="104" clip-path="url(#clipPath38)" stroke="none">telltale request</text>
            <line clip-path="url(#clipPath39)" fill="none" x1="354" x2="370" y1="117" y2="111"/>
            <line clip-path="url(#clipPath39)" fill="none" x1="370" x2="354" y1="111" y2="105"/>
            <line clip-path="url(#clipPath31)" fill="none" x1="80" x2="370" y1="330" y2="330"/>
            <text xml:space="preserve" x="187" y="323" clip-path="url(#clipPath40)" stroke="none">telltale request</text>
            <line clip-path="url(#clipPath41)" fill="none" x1="354" x2="370" y1="336" y2="330"/>
            <line clip-path="url(#clipPath41)" fill="none" x1="370" x2="354" y1="330" y2="324"/>
            <line clip-path="url(#clipPath31)" fill="none" x1="590" x2="760" y1="311" y2="311"/>
            <text xml:space="preserve" x="630" y="304" clip-path="url(#clipPath42)" stroke="none">Rendered Bitmap</text>
            <line clip-path="url(#clipPath43)" fill="none" x1="744" x2="760" y1="317" y2="311"/>
            <line clip-path="url(#clipPath43)" fill="none" x1="760" x2="744" y1="311" y2="305"/>
            <line clip-path="url(#clipPath31)" fill="none" x1="80" x2="370" y1="111" y2="111"/>
            <text xml:space="preserve" x="187" y="104" clip-path="url(#clipPath38)" stroke="none">telltale request</text>
            <line clip-path="url(#clipPath39)" fill="none" x1="354" x2="370" y1="117" y2="111"/>
            <line clip-path="url(#clipPath39)" fill="none" x1="370" x2="354" y1="111" y2="105"/>
            <line clip-path="url(#clipPath31)" fill="none" x1="200" x2="370" y1="171" y2="171"/>
            <text xml:space="preserve" x="241" y="164" clip-path="url(#clipPath36)" stroke="none">non safety status</text>
            <line clip-path="url(#clipPath37)" fill="none" x1="354" x2="370" y1="177" y2="171"/>
            <line clip-path="url(#clipPath37)" fill="none" x1="370" x2="354" y1="171" y2="165"/>
            <line clip-path="url(#clipPath31)" fill="none" x1="390" x2="570" y1="211" y2="211"/>
            <text xml:space="preserve" x="422" y="204" clip-path="url(#clipPath32)" stroke="none">Target Rendering State</text>
            <line clip-path="url(#clipPath33)" fill="none" x1="554" x2="570" y1="217" y2="211"/>
            <line clip-path="url(#clipPath33)" fill="none" x1="570" x2="554" y1="211" y2="205"/>
            <line clip-path="url(#clipPath31)" fill="none" x1="590" x2="760" y1="311" y2="311"/>
            <text xml:space="preserve" x="630" y="304" clip-path="url(#clipPath42)" stroke="none">Rendered Bitmap</text>
            <line clip-path="url(#clipPath43)" fill="none" x1="744" x2="760" y1="317" y2="311"/>
            <line clip-path="url(#clipPath43)" fill="none" x1="760" x2="744" y1="311" y2="305"/>
            <line clip-path="url(#clipPath31)" fill="none" x1="930" x2="760" y1="351" y2="351"/>
            <text xml:space="preserve" x="825" y="370" clip-path="url(#clipPath34)" stroke="none">Polling</text>
            <line clip-path="url(#clipPath35)" fill="none" x1="776" x2="760" y1="345" y2="351"/>
            <line clip-path="url(#clipPath35)" fill="none" x1="760" x2="776" y1="351" y2="357"/>
            <line clip-path="url(#clipPath31)" fill="none" x1="80" x2="370" y1="330" y2="330"/>
            <text xml:space="preserve" x="187" y="323" clip-path="url(#clipPath40)" stroke="none">telltale request</text>
            <line clip-path="url(#clipPath41)" fill="none" x1="354" x2="370" y1="336" y2="330"/>
            <line clip-path="url(#clipPath41)" fill="none" x1="370" x2="354" y1="330" y2="324"/>
        </g>
    </g>
    <rect x="10" y="10" fill-opacity="0" width="1006" id="Interaction14" height="757" stroke-opacity="0"/>
    <rect x="30" y="44" fill-opacity="0" width="100" id="" height="700" stroke-opacity="0"/>
    <rect x="150" y="44" fill-opacity="0" width="100" id="" height="700" stroke-opacity="0"/>
    <rect x="330" y="44" fill-opacity="0" width="100" id="" height="699" stroke-opacity="0"/>
    <rect x="370" y="111" fill-opacity="0" width="20" id="ActionExecutionSpecification15" height="100" stroke-opacity="0"/>
    <rect x="370" y="330" fill-opacity="0" width="20" id="ActionExecutionSpecification37" height="100" stroke-opacity="0"/>
    <rect x="710" y="44" fill-opacity="0" width="100" id="" height="700" stroke-opacity="0"/>
    <rect x="870" y="44" fill-opacity="0" width="141" id="" height="700" stroke-opacity="0"/>
    <rect x="930" y="350" fill-opacity="0" width="20" id="ActionExecutionSpecification32" height="100" stroke-opacity="0"/>
    <rect x="530" y="44" fill-opacity="0" width="100" id="" height="700" stroke-opacity="0"/>
    <rect x="570" y="211" fill-opacity="0" width="20" id="ActionExecutionSpecification24" height="100" stroke-opacity="0"/>
</svg>
