<?xml version="1.0" encoding="UTF-8"?><svg xmlns="http://www.w3.org/2000/svg" xmlns:xlink="http://www.w3.org/1999/xlink" stroke-dasharray="none" shape-rendering="auto" font-family="'Dialog'" width="877" text-rendering="auto" fill-opacity="1" contentScriptType="text/ecmascript" color-interpolation="auto" color-rendering="auto" preserveAspectRatio="xMidYMid meet" font-size="12" viewBox="0 0 877 1020" fill="black" stroke="black" image-rendering="auto" stroke-miterlimit="10" zoomAndPan="magnify" version="1.0" stroke-linecap="square" stroke-linejoin="miter" contentStyleType="text/css" font-style="normal" height="1020" stroke-width="1" stroke-dashoffset="0" font-weight="normal" stroke-opacity="1">
    <!--Generated by the Batik Graphics2D SVG Generator-->
    <defs id="genericDefs"/>
    <g>
        <defs id="defs1">
            <linearGradient x1="10" x2="10" y1="10" gradientUnits="userSpaceOnUse" y2="767" xlink:type="simple" xlink:actuate="onLoad" id="linearGradient1" xlink:show="other" spreadMethod="pad">
                <stop stop-opacity="1" stop-color="white" offset="0%"/>
                <stop stop-opacity="1" stop-color="white" offset="100%"/>
            </linearGradient>
            <linearGradient x1="110" x2="110" y1="44" gradientUnits="userSpaceOnUse" y2="744" xlink:type="simple" xlink:actuate="onLoad" id="linearGradient2" xlink:show="other" spreadMethod="pad">
                <stop stop-opacity="1" stop-color="white" offset="0%"/>
                <stop stop-opacity="1" stop-color="rgb(195,209,213)" offset="100%"/>
            </linearGradient>
            <linearGradient x1="150" x2="150" y1="90" gradientUnits="userSpaceOnUse" y2="190" xlink:type="simple" xlink:actuate="onLoad" id="linearGradient3" xlink:show="other" spreadMethod="pad">
                <stop stop-opacity="1" stop-color="white" offset="0%"/>
                <stop stop-opacity="1" stop-color="rgb(195,209,213)" offset="100%"/>
            </linearGradient>
            <linearGradient x1="150" x2="150" y1="250" gradientUnits="userSpaceOnUse" y2="350" xlink:type="simple" xlink:actuate="onLoad" id="linearGradient4" xlink:show="other" spreadMethod="pad">
                <stop stop-opacity="1" stop-color="white" offset="0%"/>
                <stop stop-opacity="1" stop-color="rgb(195,209,213)" offset="100%"/>
            </linearGradient>
            <linearGradient x1="290" x2="290" y1="44" gradientUnits="userSpaceOnUse" y2="744" xlink:type="simple" xlink:actuate="onLoad" id="linearGradient5" xlink:show="other" spreadMethod="pad">
                <stop stop-opacity="1" stop-color="white" offset="0%"/>
                <stop stop-opacity="1" stop-color="rgb(195,209,213)" offset="100%"/>
            </linearGradient>
            <clipPath clipPathUnits="userSpaceOnUse" id="clipPath1">
                <path d="M10 10 L10 766 L866 766 L866 10 Z"/>
            </clipPath>
            <clipPath clipPathUnits="userSpaceOnUse" id="clipPath2">
                <path d="M7 7 L870 7 L870 770 L7 770 L7 7 Z"/>
            </clipPath>
            <clipPath clipPathUnits="userSpaceOnUse" id="clipPath3">
                <path d="M15 12 L93 12 L93 29 L15 29 L15 12 Z"/>
            </clipPath>
            <clipPath clipPathUnits="userSpaceOnUse" id="clipPath4">
                <path d="M109 43 L211 43 L211 745 L109 745 L109 43 Z"/>
            </clipPath>
            <clipPath clipPathUnits="userSpaceOnUse" id="clipPath5">
                <path d="M110 44 L110 743 L209 743 L209 44 Z"/>
            </clipPath>
            <clipPath clipPathUnits="userSpaceOnUse" id="clipPath6">
                <path d="M113 46 L208 46 L208 63 L113 63 L113 46 Z"/>
            </clipPath>
            <clipPath clipPathUnits="userSpaceOnUse" id="clipPath7">
                <path d="M150 90 L150 189 L169 189 L169 90 Z"/>
            </clipPath>
            <clipPath clipPathUnits="userSpaceOnUse" id="clipPath8">
                <path d="M149 89 L171 89 L171 191 L149 191 L149 89 Z"/>
            </clipPath>
            <clipPath clipPathUnits="userSpaceOnUse" id="clipPath9">
                <path d="M150 250 L150 349 L169 349 L169 250 Z"/>
            </clipPath>
            <clipPath clipPathUnits="userSpaceOnUse" id="clipPath10">
                <path d="M149 249 L171 249 L171 351 L149 351 L149 249 Z"/>
            </clipPath>
            <clipPath clipPathUnits="userSpaceOnUse" id="clipPath11">
                <path d="M289 43 L453 43 L453 745 L289 745 L289 43 Z"/>
            </clipPath>
            <clipPath clipPathUnits="userSpaceOnUse" id="clipPath12">
                <path d="M290 44 L290 743 L451 743 L451 44 Z"/>
            </clipPath>
            <clipPath clipPathUnits="userSpaceOnUse" id="clipPath13">
                <path d="M313 46 L430 46 L430 63 L313 63 L313 46 Z"/>
            </clipPath>
            <clipPath clipPathUnits="userSpaceOnUse" id="clipPath14">
                <path d="M9 9 L868 9 L868 768 L9 768 L9 9 Z"/>
            </clipPath>
        </defs>
        <g fill="url(#linearGradient1)" font-family="'Segoe UI'" stroke-linejoin="round" stroke="url(#linearGradient1)" stroke-width="0" stroke-miterlimit="0">
            <rect x="10" y="10" clip-path="url(#clipPath1)" width="857" height="757" stroke="none"/>
        </g>
        <g stroke-width="0.1" font-family="'Segoe UI'" stroke-linecap="butt">
            <line clip-path="url(#clipPath2)" fill="none" x1="106" x2="106" y1="10" y2="22"/>
            <line clip-path="url(#clipPath2)" fill="none" x1="106" x2="106" y1="22" y2="22"/>
            <line clip-path="url(#clipPath2)" fill="none" x1="106" x2="100" y1="22" y2="28"/>
            <line clip-path="url(#clipPath2)" fill="none" x1="100" x2="100" y1="28" y2="28"/>
            <line clip-path="url(#clipPath2)" fill="none" x1="100" x2="10" y1="28" y2="28"/>
            <text xml:space="preserve" x="16" y="26" clip-path="url(#clipPath3)" stroke="none">Interaction14  </text>
            <rect x="110" y="44" clip-path="url(#clipPath4)" fill="none" width="99" height="18" stroke-width="1.1"/>
            <line clip-path="url(#clipPath4)" fill="none" x1="160" x2="160" y1="62" y2="743" stroke-dasharray="5,5" stroke-width="1.1"/>
        </g>
        <g stroke-linecap="butt" fill="url(#linearGradient2)" font-family="'Segoe UI'" stroke-dasharray="5,5" stroke="url(#linearGradient2)" stroke-width="1.1">
            <rect x="110" y="44" clip-path="url(#clipPath5)" width="100" opacity="0" height="700" stroke="none"/>
            <text x="114" y="60" clip-path="url(#clipPath6)" fill="black" stroke="none" xml:space="preserve">request Handlin...</text>
            <rect x="150" y="90" clip-path="url(#clipPath7)" fill="url(#linearGradient3)" width="20" height="100" stroke="none"/>
            <rect x="150" y="90" clip-path="url(#clipPath8)" fill="none" width="19" stroke-dasharray="none" rx="0" ry="0" height="99" stroke="black"/>
            <rect x="150" y="250" clip-path="url(#clipPath9)" fill="url(#linearGradient4)" width="20" stroke-dasharray="none" height="100" stroke="none"/>
            <rect x="150" y="250" clip-path="url(#clipPath10)" fill="none" width="19" stroke-dasharray="none" rx="0" ry="0" height="99" stroke="black"/>
            <rect x="290" y="44" clip-path="url(#clipPath11)" fill="none" width="161" stroke-dasharray="none" height="18" stroke="black"/>
            <line clip-path="url(#clipPath11)" fill="none" x1="371" x2="371" y1="62" y2="743" stroke="black"/>
            <rect x="290" y="44" clip-path="url(#clipPath12)" fill="url(#linearGradient5)" width="162" opacity="0" height="700" stroke="none"/>
            <text x="314" y="60" clip-path="url(#clipPath13)" fill="black" stroke="none" xml:space="preserve">rendering : Rendering</text>
            <rect x="10" y="10" clip-path="url(#clipPath14)" fill="none" width="856" stroke-dasharray="none" rx="0" ry="0" height="756" stroke="black"/>
        </g>
    </g>
    <rect x="10" y="10" fill-opacity="0" width="857" id="Interaction14" height="757" stroke-opacity="0"/>
    <rect x="110" y="44" fill-opacity="0" width="100" id="Lifeline_RequestHandling" height="700" stroke-opacity="0"/>
    <rect x="150" y="90" fill-opacity="0" width="20" title="asdf" id="ActionExecutionSpecification3" height="100" stroke-opacity="0">
        <title>asdf</title>
    </rect>
    <rect x="150" y="250" fill-opacity="0" width="20" id="ActionExecutionSpecification6" height="100" stroke-opacity="0"/>
    <rect x="290" y="44" fill-opacity="0" width="162" id="Lifeline_Rendering" height="700" stroke-opacity="0"/>
</svg>
