<?xml version="1.0" encoding="UTF-8"?><svg xmlns="http://www.w3.org/2000/svg" xmlns:xlink="http://www.w3.org/1999/xlink" stroke-dasharray="none" shape-rendering="auto" font-family="'Dialog'" width="1026" text-rendering="auto" fill-opacity="1" contentScriptType="text/ecmascript" color-interpolation="auto" color-rendering="auto" preserveAspectRatio="xMidYMid meet" font-size="12" viewBox="0 0 1026 1020" fill="black" stroke="black" image-rendering="auto" stroke-miterlimit="10" zoomAndPan="magnify" version="1.0" stroke-linecap="square" stroke-linejoin="miter" contentStyleType="text/css" font-style="normal" height="1020" stroke-width="1" stroke-dashoffset="0" font-weight="normal" stroke-opacity="1">
    <!--Generated by the Batik Graphics2D SVG Generator-->
    <defs id="genericDefs"/>
    <g>
        <defs id="defs1">
            <linearGradient x1="10" x2="10" y1="10" gradientUnits="userSpaceOnUse" y2="767" xlink:type="simple" xlink:actuate="onLoad" id="linearGradient1" xlink:show="other" spreadMethod="pad">
                <stop stop-opacity="1" stop-color="white" offset="0%"/>
                <stop stop-opacity="1" stop-color="white" offset="100%"/>
            </linearGradient>
            <linearGradient x1="30" x2="30" y1="43" gradientUnits="userSpaceOnUse" y2="743" xlink:type="simple" xlink:actuate="onLoad" id="linearGradient2" xlink:show="other" spreadMethod="pad">
                <stop stop-opacity="1" stop-color="white" offset="0%"/>
                <stop stop-opacity="1" stop-color="rgb(195,209,213)" offset="100%"/>
            </linearGradient>
            <linearGradient x1="150" x2="150" y1="43" gradientUnits="userSpaceOnUse" y2="743" xlink:type="simple" xlink:actuate="onLoad" id="linearGradient3" xlink:show="other" spreadMethod="pad">
                <stop stop-opacity="1" stop-color="white" offset="0%"/>
                <stop stop-opacity="1" stop-color="rgb(195,209,213)" offset="100%"/>
            </linearGradient>
            <linearGradient x1="330" x2="330" y1="43" gradientUnits="userSpaceOnUse" y2="742" xlink:type="simple" xlink:actuate="onLoad" id="linearGradient4" xlink:show="other" spreadMethod="pad">
                <stop stop-opacity="1" stop-color="white" offset="0%"/>
                <stop stop-opacity="1" stop-color="rgb(195,209,213)" offset="100%"/>
            </linearGradient>
            <linearGradient x1="370" x2="370" y1="110" gradientUnits="userSpaceOnUse" y2="210" xlink:type="simple" xlink:actuate="onLoad" id="linearGradient5" xlink:show="other" spreadMethod="pad">
                <stop stop-opacity="1" stop-color="white" offset="0%"/>
                <stop stop-opacity="1" stop-color="rgb(195,209,213)" offset="100%"/>
            </linearGradient>
            <linearGradient x1="710" x2="710" y1="43" gradientUnits="userSpaceOnUse" y2="743" xlink:type="simple" xlink:actuate="onLoad" id="linearGradient6" xlink:show="other" spreadMethod="pad">
                <stop stop-opacity="1" stop-color="white" offset="0%"/>
                <stop stop-opacity="1" stop-color="rgb(195,209,213)" offset="100%"/>
            </linearGradient>
            <linearGradient x1="870" x2="870" y1="43" gradientUnits="userSpaceOnUse" y2="743" xlink:type="simple" xlink:actuate="onLoad" id="linearGradient7" xlink:show="other" spreadMethod="pad">
                <stop stop-opacity="1" stop-color="white" offset="0%"/>
                <stop stop-opacity="1" stop-color="rgb(195,209,213)" offset="100%"/>
            </linearGradient>
            <linearGradient x1="530" x2="530" y1="43" gradientUnits="userSpaceOnUse" y2="743" xlink:type="simple" xlink:actuate="onLoad" id="linearGradient8" xlink:show="other" spreadMethod="pad">
                <stop stop-opacity="1" stop-color="white" offset="0%"/>
                <stop stop-opacity="1" stop-color="rgb(195,209,213)" offset="100%"/>
            </linearGradient>
            <linearGradient x1="570" x2="570" y1="210" gradientUnits="userSpaceOnUse" y2="310" xlink:type="simple" xlink:actuate="onLoad" id="linearGradient9" xlink:show="other" spreadMethod="pad">
                <stop stop-opacity="1" stop-color="white" offset="0%"/>
                <stop stop-opacity="1" stop-color="rgb(195,209,213)" offset="100%"/>
            </linearGradient>
            <clipPath clipPathUnits="userSpaceOnUse" id="clipPath1">
                <path d="M10 10 L10 766 L1015 766 L1015 10 Z"/>
            </clipPath>
            <clipPath clipPathUnits="userSpaceOnUse" id="clipPath2">
                <path d="M7 7 L1019 7 L1019 770 L7 770 L7 7 Z"/>
            </clipPath>
            <clipPath clipPathUnits="userSpaceOnUse" id="clipPath3">
                <path d="M15 12 L107 12 L107 28 L15 28 L15 12 Z"/>
            </clipPath>
            <clipPath clipPathUnits="userSpaceOnUse" id="clipPath4">
                <path d="M29 42 L131 42 L131 744 L29 744 L29 42 Z"/>
            </clipPath>
            <clipPath clipPathUnits="userSpaceOnUse" id="clipPath5">
                <path d="M30 43 L30 742 L129 742 L129 43 Z"/>
            </clipPath>
            <clipPath clipPathUnits="userSpaceOnUse" id="clipPath6">
                <path d="M30 45 L131 45 L131 61 L30 61 L30 45 Z"/>
            </clipPath>
            <clipPath clipPathUnits="userSpaceOnUse" id="clipPath7">
                <path d="M149 42 L251 42 L251 744 L149 744 L149 42 Z"/>
            </clipPath>
            <clipPath clipPathUnits="userSpaceOnUse" id="clipPath8">
                <path d="M150 43 L150 742 L249 742 L249 43 Z"/>
            </clipPath>
            <clipPath clipPathUnits="userSpaceOnUse" id="clipPath9">
                <path d="M151 45 L251 45 L251 61 L151 61 L151 45 Z"/>
            </clipPath>
            <clipPath clipPathUnits="userSpaceOnUse" id="clipPath10">
                <path d="M329 42 L431 42 L431 743 L329 743 L329 42 Z"/>
            </clipPath>
            <clipPath clipPathUnits="userSpaceOnUse" id="clipPath11">
                <path d="M330 43 L330 741 L429 741 L429 43 Z"/>
            </clipPath>
            <clipPath clipPathUnits="userSpaceOnUse" id="clipPath12">
                <path d="M333 45 L428 45 L428 61 L333 61 L333 45 Z"/>
            </clipPath>
            <clipPath clipPathUnits="userSpaceOnUse" id="clipPath13">
                <path d="M370 110 L370 209 L389 209 L389 110 Z"/>
            </clipPath>
            <clipPath clipPathUnits="userSpaceOnUse" id="clipPath14">
                <path d="M369 109 L391 109 L391 211 L369 211 L369 109 Z"/>
            </clipPath>
            <clipPath clipPathUnits="userSpaceOnUse" id="clipPath15">
                <path d="M709 42 L811 42 L811 744 L709 744 L709 42 Z"/>
            </clipPath>
            <clipPath clipPathUnits="userSpaceOnUse" id="clipPath16">
                <path d="M710 43 L710 742 L809 742 L809 43 Z"/>
            </clipPath>
            <clipPath clipPathUnits="userSpaceOnUse" id="clipPath17">
                <path d="M712 45 L809 45 L809 61 L712 61 L712 45 Z"/>
            </clipPath>
            <clipPath clipPathUnits="userSpaceOnUse" id="clipPath18">
                <path d="M869 42 L1012 42 L1012 744 L869 744 L869 42 Z"/>
            </clipPath>
            <clipPath clipPathUnits="userSpaceOnUse" id="clipPath19">
                <path d="M870 43 L870 742 L1010 742 L1010 43 Z"/>
            </clipPath>
            <clipPath clipPathUnits="userSpaceOnUse" id="clipPath20">
                <path d="M873 45 L1009 45 L1009 61 L873 61 L873 45 Z"/>
            </clipPath>
            <clipPath clipPathUnits="userSpaceOnUse" id="clipPath21">
                <path d="M529 42 L631 42 L631 744 L529 744 L529 42 Z"/>
            </clipPath>
            <clipPath clipPathUnits="userSpaceOnUse" id="clipPath22">
                <path d="M530 43 L530 742 L629 742 L629 43 Z"/>
            </clipPath>
            <clipPath clipPathUnits="userSpaceOnUse" id="clipPath23">
                <path d="M543 45 L619 45 L619 61 L543 61 L543 45 Z"/>
            </clipPath>
            <clipPath clipPathUnits="userSpaceOnUse" id="clipPath24">
                <path d="M570 210 L570 309 L589 309 L589 210 Z"/>
            </clipPath>
            <clipPath clipPathUnits="userSpaceOnUse" id="clipPath25">
                <path d="M569 209 L591 209 L591 311 L569 311 L569 209 Z"/>
            </clipPath>
            <clipPath clipPathUnits="userSpaceOnUse" id="clipPath26">
                <path d="M9 9 L1017 9 L1017 768 L9 768 L9 9 Z"/>
            </clipPath>
            <clipPath clipPathUnits="userSpaceOnUse" id="clipPath27">
                <path d="M-1 -1 L1027 -1 L1027 1021 L-1 1021 L-1 -1 Z"/>
            </clipPath>
            <clipPath clipPathUnits="userSpaceOnUse" id="clipPath28">
                <path d="M233 149 L339 149 L339 165 L233 165 L233 149 Z"/>
            </clipPath>
            <clipPath clipPathUnits="userSpaceOnUse" id="clipPath29">
                <path d="M353 163 L372 163 L372 178 L353 178 L353 163 Z"/>
            </clipPath>
            <clipPath clipPathUnits="userSpaceOnUse" id="clipPath30">
                <path d="M829 355 L870 355 L870 371 L829 371 L829 355 Z"/>
            </clipPath>
            <clipPath clipPathUnits="userSpaceOnUse" id="clipPath31">
                <path d="M759 343 L778 343 L778 358 L759 358 L759 343 Z"/>
            </clipPath>
            <clipPath clipPathUnits="userSpaceOnUse" id="clipPath32">
                <path d="M623 289 L730 289 L730 305 L623 305 L623 289 Z"/>
            </clipPath>
            <clipPath clipPathUnits="userSpaceOnUse" id="clipPath33">
                <path d="M743 303 L762 303 L762 318 L743 318 L743 303 Z"/>
            </clipPath>
            <clipPath clipPathUnits="userSpaceOnUse" id="clipPath34">
                <path d="M411 189 L552 189 L552 205 L411 205 L411 189 Z"/>
            </clipPath>
            <clipPath clipPathUnits="userSpaceOnUse" id="clipPath35">
                <path d="M553 203 L572 203 L572 218 L553 218 L553 203 Z"/>
            </clipPath>
            <clipPath clipPathUnits="userSpaceOnUse" id="clipPath36">
                <path d="M180 89 L272 89 L272 105 L180 105 L180 89 Z"/>
            </clipPath>
            <clipPath clipPathUnits="userSpaceOnUse" id="clipPath37">
                <path d="M353 103 L372 103 L372 118 L353 118 L353 103 Z"/>
            </clipPath>
        </defs>
        <g font-size="14" fill="url(#linearGradient1)" font-family="'Ubuntu'" stroke-linejoin="round" stroke="url(#linearGradient1)" stroke-width="0" stroke-miterlimit="0">
            <rect x="10" y="10" clip-path="url(#clipPath1)" width="1006" height="757" stroke="none"/>
        </g>
        <g stroke-width="0.1" font-size="14" font-family="'Ubuntu'" stroke-linecap="butt">
            <line clip-path="url(#clipPath2)" fill="none" x1="120" x2="120" y1="10" y2="22"/>
            <line clip-path="url(#clipPath2)" fill="none" x1="120" x2="120" y1="22" y2="22"/>
            <line clip-path="url(#clipPath2)" fill="none" x1="120" x2="114" y1="22" y2="27"/>
            <line clip-path="url(#clipPath2)" fill="none" x1="114" x2="114" y1="27" y2="27"/>
            <line clip-path="url(#clipPath2)" fill="none" x1="114" x2="10" y1="27" y2="27"/>
            <text x="16" font-size="12" y="25" clip-path="url(#clipPath3)" font-family="'Dialog'" stroke="none" xml:space="preserve">Interaction14  </text>
            <rect x="30" y="43" clip-path="url(#clipPath4)" fill="none" width="99" height="17" stroke-width="1.1"/>
            <line clip-path="url(#clipPath4)" fill="none" x1="80" x2="80" y1="60" y2="742" stroke-dasharray="5,5" stroke-width="1.1"/>
        </g>
        <g stroke-linecap="butt" font-size="14" fill="url(#linearGradient2)" font-family="'Ubuntu'" stroke-dasharray="5,5" stroke="url(#linearGradient2)" stroke-width="1.1">
            <rect x="30" y="43" clip-path="url(#clipPath5)" width="100" opacity="0" height="700" stroke="none"/>
        </g>
        <g stroke-dasharray="5,5" stroke-width="1.1" stroke-linecap="butt">
            <text xml:space="preserve" x="31" y="58" clip-path="url(#clipPath6)" stroke="none"> : Telltale Requ...</text>
            <rect x="150" y="43" clip-path="url(#clipPath7)" fill="none" width="99" stroke-dasharray="none" height="17"/>
            <line clip-path="url(#clipPath7)" fill="none" x1="200" x2="200" y1="60" y2="742"/>
        </g>
        <g stroke-linecap="butt" font-size="14" fill="url(#linearGradient3)" font-family="'Ubuntu'" stroke-dasharray="5,5" stroke="url(#linearGradient3)" stroke-width="1.1">
            <rect x="150" y="43" clip-path="url(#clipPath8)" width="100" opacity="0" height="700" stroke="none"/>
        </g>
        <g stroke-dasharray="5,5" stroke-width="1.1" stroke-linecap="butt">
            <text xml:space="preserve" x="152" y="58" clip-path="url(#clipPath9)" stroke="none"> : Non Safety I...</text>
            <rect x="330" y="43" clip-path="url(#clipPath10)" fill="none" width="99" stroke-dasharray="none" height="17"/>
            <line clip-path="url(#clipPath10)" fill="none" x1="380" x2="380" y1="60" y2="741"/>
        </g>
        <g stroke-linecap="butt" font-size="14" fill="url(#linearGradient4)" font-family="'Ubuntu'" stroke-dasharray="5,5" stroke="url(#linearGradient4)" stroke-width="1.1">
            <rect x="330" y="43" clip-path="url(#clipPath11)" width="100" opacity="0" height="699" stroke="none"/>
        </g>
        <g stroke-dasharray="5,5" stroke-width="1.1" stroke-linecap="butt">
            <text xml:space="preserve" x="334" y="58" clip-path="url(#clipPath12)" stroke="none"> : Request Ha...</text>
        </g>
        <g stroke-linecap="butt" font-size="14" fill="url(#linearGradient5)" font-family="'Ubuntu'" stroke-dasharray="5,5" stroke="url(#linearGradient5)" stroke-width="1.1">
            <rect x="370" y="110" clip-path="url(#clipPath13)" width="20" height="100" stroke="none"/>
            <rect x="370" y="110" clip-path="url(#clipPath14)" fill="none" width="19" stroke-dasharray="none" rx="0" ry="0" height="99" stroke="black"/>
            <rect x="710" y="43" clip-path="url(#clipPath15)" fill="none" width="99" stroke-dasharray="none" height="17" stroke="black"/>
            <line clip-path="url(#clipPath15)" fill="none" x1="760" x2="760" y1="60" y2="742" stroke="black"/>
            <rect x="710" y="43" clip-path="url(#clipPath16)" fill="url(#linearGradient6)" width="100" opacity="0" height="700" stroke="none"/>
        </g>
        <g stroke-dasharray="5,5" stroke-width="1.1" stroke-linecap="butt">
            <text xml:space="preserve" x="713" y="58" clip-path="url(#clipPath17)" stroke="none"> : Plane Storage</text>
            <rect x="870" y="43" clip-path="url(#clipPath18)" fill="none" width="140" stroke-dasharray="none" height="17"/>
            <line clip-path="url(#clipPath18)" fill="none" x1="940" x2="940" y1="60" y2="742"/>
        </g>
        <g stroke-linecap="butt" font-size="14" fill="url(#linearGradient7)" font-family="'Ubuntu'" stroke-dasharray="5,5" stroke="url(#linearGradient7)" stroke-width="1.1">
            <rect x="870" y="43" clip-path="url(#clipPath19)" width="141" opacity="0" height="700" stroke="none"/>
        </g>
        <g stroke-dasharray="5,5" stroke-width="1.1" stroke-linecap="butt">
            <text xml:space="preserve" x="874" y="58" clip-path="url(#clipPath20)" stroke="none"> : Autonomous Merg...</text>
            <rect x="530" y="43" clip-path="url(#clipPath21)" fill="none" width="99" stroke-dasharray="none" height="17"/>
            <line clip-path="url(#clipPath21)" fill="none" x1="580" x2="580" y1="60" y2="742"/>
        </g>
        <g stroke-linecap="butt" font-size="14" fill="url(#linearGradient8)" font-family="'Ubuntu'" stroke-dasharray="5,5" stroke="url(#linearGradient8)" stroke-width="1.1">
            <rect x="530" y="43" clip-path="url(#clipPath22)" width="100" opacity="0" height="700" stroke="none"/>
        </g>
        <g stroke-dasharray="5,5" stroke-width="1.1" stroke-linecap="butt">
            <text xml:space="preserve" x="544" y="58" clip-path="url(#clipPath23)" stroke="none"> : Rendering</text>
        </g>
        <g stroke-linecap="butt" font-size="14" fill="url(#linearGradient9)" font-family="'Ubuntu'" stroke-dasharray="5,5" stroke="url(#linearGradient9)" stroke-width="1.1">
            <rect x="570" y="210" clip-path="url(#clipPath24)" width="20" height="100" stroke="none"/>
            <rect x="570" y="210" clip-path="url(#clipPath25)" fill="none" width="19" stroke-dasharray="none" rx="0" ry="0" height="99" stroke="black"/>
            <rect x="10" y="10" clip-path="url(#clipPath26)" fill="none" width="1005" stroke-dasharray="none" rx="0" ry="0" height="756" stroke="black"/>
        </g>
        <g text-rendering="optimizeLegibility" stroke-width="1.1" stroke-linecap="butt">
            <line clip-path="url(#clipPath27)" fill="none" x1="200" x2="370" y1="170" y2="170"/>
            <text xml:space="preserve" x="234" y="162" clip-path="url(#clipPath28)" stroke="none">non safety status</text>
            <line clip-path="url(#clipPath29)" fill="none" x1="354" x2="370" y1="176" y2="170"/>
            <line clip-path="url(#clipPath29)" fill="none" x1="370" x2="354" y1="170" y2="164"/>
            <line clip-path="url(#clipPath27)" fill="none" x1="940" x2="760" y1="350" y2="350"/>
            <text xml:space="preserve" x="830" y="368" clip-path="url(#clipPath30)" stroke="none">Polling</text>
            <line clip-path="url(#clipPath31)" fill="none" x1="776" x2="760" y1="344" y2="350"/>
            <line clip-path="url(#clipPath31)" fill="none" x1="760" x2="776" y1="350" y2="356"/>
            <line clip-path="url(#clipPath27)" fill="none" x1="590" x2="760" y1="310" y2="310"/>
            <text xml:space="preserve" x="624" y="302" clip-path="url(#clipPath32)" stroke="none">Rendered Bitmap</text>
            <line clip-path="url(#clipPath33)" fill="none" x1="744" x2="760" y1="316" y2="310"/>
            <line clip-path="url(#clipPath33)" fill="none" x1="760" x2="744" y1="310" y2="304"/>
            <line clip-path="url(#clipPath27)" fill="none" x1="390" x2="570" y1="210" y2="210"/>
            <text xml:space="preserve" x="412" y="202" clip-path="url(#clipPath34)" stroke="none">Target Rendering State</text>
            <line clip-path="url(#clipPath35)" fill="none" x1="554" x2="570" y1="216" y2="210"/>
            <line clip-path="url(#clipPath35)" fill="none" x1="570" x2="554" y1="210" y2="204"/>
            <line clip-path="url(#clipPath27)" fill="none" x1="80" x2="370" y1="110" y2="110"/>
            <text xml:space="preserve" x="181" y="102" clip-path="url(#clipPath36)" stroke="none">telltale request</text>
            <line clip-path="url(#clipPath37)" fill="none" x1="354" x2="370" y1="116" y2="110"/>
            <line clip-path="url(#clipPath37)" fill="none" x1="370" x2="354" y1="110" y2="104"/>
            <line clip-path="url(#clipPath27)" fill="none" x1="80" x2="370" y1="110" y2="110"/>
            <text xml:space="preserve" x="181" y="102" clip-path="url(#clipPath36)" stroke="none">telltale request</text>
            <line clip-path="url(#clipPath37)" fill="none" x1="354" x2="370" y1="116" y2="110"/>
            <line clip-path="url(#clipPath37)" fill="none" x1="370" x2="354" y1="110" y2="104"/>
            <line clip-path="url(#clipPath27)" fill="none" x1="200" x2="370" y1="170" y2="170"/>
            <text xml:space="preserve" x="234" y="162" clip-path="url(#clipPath28)" stroke="none">non safety status</text>
            <line clip-path="url(#clipPath29)" fill="none" x1="354" x2="370" y1="176" y2="170"/>
            <line clip-path="url(#clipPath29)" fill="none" x1="370" x2="354" y1="170" y2="164"/>
            <line clip-path="url(#clipPath27)" fill="none" x1="390" x2="570" y1="210" y2="210"/>
            <text xml:space="preserve" x="412" y="202" clip-path="url(#clipPath34)" stroke="none">Target Rendering State</text>
            <line clip-path="url(#clipPath35)" fill="none" x1="554" x2="570" y1="216" y2="210"/>
            <line clip-path="url(#clipPath35)" fill="none" x1="570" x2="554" y1="210" y2="204"/>
            <line clip-path="url(#clipPath27)" fill="none" x1="590" x2="760" y1="310" y2="310"/>
            <text xml:space="preserve" x="624" y="302" clip-path="url(#clipPath32)" stroke="none">Rendered Bitmap</text>
            <line clip-path="url(#clipPath33)" fill="none" x1="744" x2="760" y1="316" y2="310"/>
            <line clip-path="url(#clipPath33)" fill="none" x1="760" x2="744" y1="310" y2="304"/>
            <line clip-path="url(#clipPath27)" fill="none" x1="940" x2="760" y1="350" y2="350"/>
            <text xml:space="preserve" x="830" y="368" clip-path="url(#clipPath30)" stroke="none">Polling</text>
            <line clip-path="url(#clipPath31)" fill="none" x1="776" x2="760" y1="344" y2="350"/>
            <line clip-path="url(#clipPath31)" fill="none" x1="760" x2="776" y1="350" y2="356"/>
        </g>
    </g>
    <rect x="10" y="10" fill-opacity="0" width="1006" id="Interaction14" height="757" stroke-opacity="0"/>
    <rect x="30" y="43" fill-opacity="0" width="100" id="" height="700" stroke-opacity="0"/>
    <rect x="150" y="43" fill-opacity="0" width="100" id="" height="700" stroke-opacity="0"/>
    <rect x="330" y="43" fill-opacity="0" width="100" id="" height="699" stroke-opacity="0"/>
    <rect x="370" y="110" fill-opacity="0" width="20" id="ActionExecutionSpecification15" height="100" stroke-opacity="0"/>
    <rect x="710" y="43" fill-opacity="0" width="100" id="" height="700" stroke-opacity="0"/>
    <rect x="870" y="43" fill-opacity="0" width="141" id="" height="700" stroke-opacity="0"/>
    <rect x="530" y="43" fill-opacity="0" width="100" id="" height="700" stroke-opacity="0"/>
    <rect x="570" y="210" fill-opacity="0" width="20" id="ActionExecutionSpecification24" height="100" stroke-opacity="0"/>
</svg>
